<svg xmlns="http://www.w3.org/2000/svg" width="80" height="80"><g fill="#fefefe"><rect width="16" height="16"/><rect width="16" height="16" fill="#ffffff" x="16"/><rect width="16" height="16" fill="#1c1a1b" x="32"/><rect width="16" height="16" fill="#040605" x="48"/><rect width="16" height="16" fill="#040605" x="64"/><rect width="16" height="16" y="16"/><rect width="16" height="16" fill="#fffef8" x="16" y="16"/><rect width="16" height="16" fill="#3b2518" x="32" y="16"/><rect width="16" height="16" fill="#593320" x="48" y="16"/><rect width="16" height="16" fill="#3d220f" x="64" y="16"/><rect width="16" height="16" y="32"/><rect width="16" height="16" fill="#fdfdff" x="16" y="32"/><rect width="16" height="16" fill="#7f5b45" x="32" y="32"/><rect width="16" height="16" fill="#dea288" x="48" y="32"/><rect width="16" height="16" fill="#eea98a" x="64" y="32"/><rect width="16" height="16" y="48"/><rect width="16" height="16" fill="#ffd8cf" x="16" y="48"/><rect width="16" height="16" fill="#ab7d66" x="32" y="48"/><rect width="16" height="16" fill="#734f3f" x="48" y="48"/><rect width="16" height="16" fill="#d49e84" x="64" y="48"/><rect width="16" height="16" y="64"/><rect width="16" height="16" fill="#fffbf7" x="16" y="64"/><rect width="16" height="16" fill="#b3836f" x="32" y="64"/><rect width="16" height="16" fill="#d29279" x="48" y="64"/><rect width="16" height="16" fill="#e6a891" x="64" y="64"/></g></svg>