<svg xmlns="http://www.w3.org/2000/svg" width="82" height="75"><g fill="#de513e"><rect width="16" height="15"/><rect width="16" height="15" fill="#e4523f" x="16"/><rect width="16" height="15" fill="#e75441" x="32"/><rect width="16" height="15" fill="#e85643" x="48"/><rect width="16" height="15" fill="#eb5845" x="64"/><rect width="16" height="15" y="15"/><rect width="16" height="15" fill="#e3513e" x="16" y="15"/><rect width="16" height="15" fill="#ea7e71" x="32" y="15"/><rect width="16" height="15" fill="#ef9387" x="48" y="15"/><rect width="16" height="15" fill="#f19588" x="64" y="15"/><rect width="16" height="15" fill="#da4c3b" y="30"/><rect width="16" height="15" fill="#e14f3c" x="16" y="30"/><rect width="16" height="15" fill="#e3503d" x="32" y="30"/><rect width="16" height="15" fill="#e5503d" x="48" y="30"/><rect width="16" height="15" fill="#e65340" x="64" y="30"/><rect width="16" height="15" fill="#da4b39" y="45"/><rect width="16" height="15" fill="#df4d3a" x="16" y="45"/><rect width="16" height="15" fill="#ea7e70" x="32" y="45"/><rect width="16" height="15" fill="#ef9589" x="48" y="45"/><rect width="16" height="15" fill="#f0978c" x="64" y="45"/><rect width="16" height="15" fill="#e9e7da" y="60"/><rect width="16" height="15" fill="#de4f3d" x="16" y="60"/><rect width="16" height="15" fill="#e36454" x="32" y="60"/><rect width="16" height="15" fill="#e77060" x="48" y="60"/><rect width="16" height="15" fill="#e97263" x="64" y="60"/></g></svg>