<svg xmlns="http://www.w3.org/2000/svg" width="67" height="63"><g fill="#f5f3e4"><rect width="13" height="12"/><rect width="13" height="12" fill="#f1efe1" x="13"/><rect width="13" height="12" fill="#f1efe1" x="26"/><rect width="13" height="12" fill="#f3f3e7" x="39"/><rect width="13" height="12" fill="#f3f3e7" x="52"/><rect width="13" height="12" fill="#f2f1e2" y="12"/><rect width="13" height="12" fill="#82a536" x="13" y="12"/><rect width="13" height="12" fill="#82a536" x="26" y="12"/><rect width="13" height="12" fill="#82a536" x="39" y="12"/><rect width="13" height="12" fill="#9db961" x="52" y="12"/><rect width="13" height="12" fill="#f2f1e2" y="24"/><rect width="13" height="12" fill="#fdfbeb" x="13" y="24"/><rect width="13" height="12" fill="#fdfbeb" x="26" y="24"/><rect width="13" height="12" fill="#fdfbeb" x="39" y="24"/><rect width="13" height="12" fill="#eceade" x="52" y="24"/><rect width="13" height="12" fill="#f2f1e2" y="36"/><rect width="13" height="12" fill="#736e79" x="13" y="36"/><rect width="13" height="12" fill="#736e79" x="26" y="36"/><rect width="13" height="12" fill="#736e79" x="39" y="36"/><rect width="13" height="12" fill="#fffded" x="52" y="36"/><rect width="13" height="12" fill="#f3f1e2" y="48"/><rect width="13" height="12" fill="#736e79" x="13" y="48"/><rect width="13" height="12" fill="#736e79" x="26" y="48"/><rect width="13" height="12" fill="#736e79" x="39" y="48"/><rect width="13" height="12" fill="#ffffef" x="52" y="48"/></g></svg>