<svg xmlns="http://www.w3.org/2000/svg" width="82" height="75"><g fill="#82a535"><rect width="16" height="15"/><rect width="16" height="15" fill="#84a737" x="16"/><rect width="16" height="15" fill="#86a939" x="32"/><rect width="16" height="15" fill="#87aa3b" x="48"/><rect width="16" height="15" fill="#89ac3c" x="64"/><rect width="16" height="15" y="15"/><rect width="16" height="15" x="16" y="15"/><rect width="16" height="15" fill="#8dad46" x="32" y="15"/><rect width="16" height="15" fill="#eceadf" x="48" y="15"/><rect width="16" height="15" fill="#eceadf" x="64" y="15"/><rect width="16" height="15" fill="#80a333" y="30"/><rect width="16" height="15" x="16" y="30"/><rect width="16" height="15" fill="#eceadf" x="32" y="30"/><rect width="16" height="15" fill="#eceadf" x="48" y="30"/><rect width="16" height="15" fill="#eceadf" x="64" y="30"/><rect width="16" height="15" fill="#7da131" y="45"/><rect width="16" height="15" fill="#eceadf" x="16" y="45"/><rect width="16" height="15" fill="#93918f" x="32" y="45"/><rect width="16" height="15" fill="#4a484f" x="48" y="45"/><rect width="16" height="15" fill="#eceadf" x="64" y="45"/><rect width="16" height="15" fill="#7da131" y="60"/><rect width="16" height="15" fill="#e6e5d9" x="16" y="60"/><rect width="16" height="15" fill="#bdbbb2" x="32" y="60"/><rect width="16" height="15" fill="#4a484f" x="48" y="60"/><rect width="16" height="15" fill="#4a484f" x="64" y="60"/></g></svg>