<svg xmlns="http://www.w3.org/2000/svg" width="82" height="75"><g fill="#f1f0e1"><rect width="16" height="15"/><rect width="16" height="15" fill="#efede0" x="16"/><rect width="16" height="15" fill="#efede0" x="32"/><rect width="16" height="15" fill="#f2f1e6" x="48"/><rect width="16" height="15" fill="#f2f1e6" x="64"/><rect width="16" height="15" fill="#f0efe1" y="15"/><rect width="16" height="15" fill="#82a536" x="16" y="15"/><rect width="16" height="15" fill="#82a536" x="32" y="15"/><rect width="16" height="15" fill="#82a536" x="48" y="15"/><rect width="16" height="15" fill="#9db960" x="64" y="15"/><rect width="16" height="15" fill="#f0efe1" y="30"/><rect width="16" height="15" fill="#d7d4cc" x="16" y="30"/><rect width="16" height="15" fill="#d7d4cc" x="32" y="30"/><rect width="16" height="15" fill="#d7d4cc" x="48" y="30"/><rect width="16" height="15" fill="#efeee0" x="64" y="30"/><rect width="16" height="15" fill="#f0efe1" y="45"/><rect width="16" height="15" fill="#736e79" x="16" y="45"/><rect width="16" height="15" fill="#736e79" x="32" y="45"/><rect width="16" height="15" fill="#736e79" x="48" y="45"/><rect width="16" height="15" fill="#f5f3e5" x="64" y="45"/><rect width="16" height="15" fill="#f1efe1" y="60"/><rect width="16" height="15" fill="#736e79" x="16" y="60"/><rect width="16" height="15" fill="#736e79" x="32" y="60"/><rect width="16" height="15" fill="#736e79" x="48" y="60"/><rect width="16" height="15" fill="#f5f3e5" x="64" y="60"/></g></svg>