<svg xmlns="http://www.w3.org/2000/svg" width="82" height="75"><g fill="#fbfbfb"><rect width="16" height="15"/><rect width="16" height="15" fill="#326592" x="16"/><rect width="16" height="15" fill="#326592" x="32"/><rect width="16" height="15" fill="#7c97af" x="48"/><rect width="16" height="15" fill="#326592" x="64"/><rect width="16" height="15" fill="#f1f1f0" y="15"/><rect width="16" height="15" fill="#2e5d86" x="16" y="15"/><rect width="16" height="15" fill="#fefefd" x="32" y="15"/><rect width="16" height="15" fill="#fcfcfc" x="48" y="15"/><rect width="16" height="15" fill="#f6f6f6" x="64" y="15"/><rect width="16" height="15" fill="#648098" y="30"/><rect width="16" height="15" fill="#dadde0" x="16" y="30"/><rect width="16" height="15" fill="#cdd2d8" x="32" y="30"/><rect width="16" height="15" fill="#ffffff" x="48" y="30"/><rect width="16" height="15" fill="#ffffff" x="64" y="30"/><rect width="16" height="15" fill="#234664" y="45"/><rect width="16" height="15" fill="#f6f6f5" x="16" y="45"/><rect width="16" height="15" fill="#234664" x="32" y="45"/><rect width="16" height="15" fill="#fefefd" x="48" y="45"/><rect width="16" height="15" fill="#224563" x="64" y="45"/><rect width="16" height="15" fill="#3f5a73" y="60"/><rect width="16" height="15" fill="#2d4b66" x="16" y="60"/><rect width="16" height="15" fill="#2d4b65" x="32" y="60"/><rect width="16" height="15" fill="#2d4b65" x="48" y="60"/><rect width="16" height="15" fill="#21405b" x="64" y="60"/></g></svg>